<svg width="350" height="71" viewBox="0 0 350 71" fill="none" xmlns="http://www.w3.org/2000/svg">
<path d="M106.139 54.5303C103.488 54.5303 101.013 54.0354 98.7146 53.0454C96.4165 52.0555 94.4013 50.6943 92.6689 48.9619C90.9365 47.1942 89.5753 45.1613 88.5854 42.8632C87.6308 40.5298 87.1535 38.0372 87.1535 35.3856C87.1535 32.734 87.6308 30.2592 88.5854 27.9611C89.5753 25.663 90.9188 23.6478 92.6159 21.9154C94.3483 20.1476 96.3458 18.7865 98.6085 17.8319C100.907 16.842 103.381 16.347 106.033 16.347C108.685 16.347 111.142 16.842 113.405 17.8319C115.703 18.7865 117.718 20.1476 119.45 21.9154C121.183 23.6478 122.526 25.6807 123.481 28.0141C124.471 30.3122 124.966 32.787 124.966 35.4387C124.966 38.0903 124.471 40.5828 123.481 42.9162C122.526 45.2143 121.183 47.2295 119.45 48.9619C117.753 50.6943 115.756 52.0555 113.458 53.0454C111.195 54.0354 108.755 54.5303 106.139 54.5303ZM106.033 48.6968C108.543 48.6968 110.735 48.1311 112.609 46.9997C114.518 45.8684 116.003 44.3127 117.064 42.3329C118.16 40.3176 118.708 38.0019 118.708 35.3856C118.708 33.4411 118.39 31.6734 117.753 30.0824C117.152 28.4561 116.286 27.0595 115.155 25.8928C114.023 24.6908 112.68 23.7715 111.124 23.1351C109.604 22.4987 107.907 22.1806 106.033 22.1806C103.558 22.1806 101.366 22.7462 99.457 23.8776C97.5832 24.9736 96.0983 26.5115 95.0023 28.4914C93.9417 30.4713 93.4113 32.7694 93.4113 35.3856C93.4113 37.3301 93.7119 39.1332 94.3129 40.7949C94.9493 42.4213 95.8155 43.8178 96.9115 44.9845C98.0428 46.1512 99.3863 47.0704 100.942 47.7422C102.498 48.3786 104.195 48.6968 106.033 48.6968ZM142.092 54.5303C139.582 54.5303 137.302 53.947 135.251 52.7803C133.236 51.6135 131.645 50.0226 130.478 48.0073C129.311 45.9921 128.728 43.7471 128.728 41.2722C128.728 38.762 129.311 36.517 130.478 34.5371C131.645 32.5219 133.236 30.9309 135.251 29.7642C137.302 28.5975 139.582 28.0141 142.092 28.0141C144.072 28.0141 145.911 28.403 147.608 29.1808C149.34 29.9233 150.807 31.0016 152.009 32.4158L148.191 36.2872C147.448 35.4033 146.547 34.7492 145.486 34.325C144.461 33.8654 143.33 33.6356 142.092 33.6356C140.643 33.6356 139.352 33.9714 138.221 34.6432C137.125 35.2796 136.259 36.1634 135.622 37.2948C135.021 38.4261 134.721 39.752 134.721 41.2722C134.721 42.7571 135.021 44.0829 135.622 45.2497C136.259 46.381 137.125 47.2826 138.221 47.9543C139.352 48.5907 140.643 48.9089 142.092 48.9089C143.33 48.9089 144.461 48.6968 145.486 48.2725C146.547 47.8129 147.448 47.1411 148.191 46.2573L152.009 50.1286C150.807 51.5428 149.34 52.6388 147.608 53.4166C145.911 54.1591 144.072 54.5303 142.092 54.5303ZM167.523 54.5303C164.978 54.5303 162.68 53.9646 160.629 52.8333C158.614 51.6666 157.005 50.0756 155.803 48.0604C154.636 46.0451 154.053 43.7824 154.053 41.2722C154.053 38.762 154.636 36.517 155.803 34.5371C156.97 32.5219 158.543 30.9309 160.523 29.7642C162.538 28.5975 164.766 28.0141 167.205 28.0141C169.574 28.0141 171.66 28.5621 173.463 29.6581C175.301 30.7541 176.733 32.2567 177.759 34.1659C178.819 36.075 179.35 38.2494 179.35 40.6889C179.35 41.1131 179.314 41.5551 179.243 42.0147C179.208 42.4389 179.137 42.9162 179.031 43.4466H158.137V38.6736H176.008L173.834 40.5828C173.763 39.0272 173.463 37.7191 172.933 36.6584C172.402 35.5978 171.642 34.7846 170.652 34.2189C169.698 33.6532 168.513 33.3704 167.099 33.3704C165.614 33.3704 164.324 33.6886 163.228 34.325C162.132 34.9614 161.283 35.8629 160.682 37.0296C160.081 38.161 159.781 39.5222 159.781 41.1131C159.781 42.7041 160.099 44.1006 160.735 45.3027C161.372 46.5048 162.273 47.4417 163.44 48.1134C164.607 48.7498 165.95 49.068 167.47 49.068C168.778 49.068 169.98 48.8382 171.076 48.3786C172.208 47.919 173.162 47.2472 173.94 46.3633L177.652 50.1286C176.415 51.5782 174.912 52.6742 173.145 53.4166C171.377 54.1591 169.503 54.5303 167.523 54.5303ZM194.685 54.5303C192.387 54.5303 190.301 53.947 188.428 52.7803C186.589 51.6135 185.122 50.0402 184.026 48.0604C182.965 46.0451 182.435 43.8001 182.435 41.3253C182.435 38.8151 182.965 36.57 184.026 34.5901C185.122 32.5749 186.589 30.9839 188.428 29.8172C190.301 28.6152 192.387 28.0141 194.685 28.0141C196.63 28.0141 198.345 28.4384 199.83 29.2869C201.35 30.1001 202.552 31.2314 203.436 32.681C204.32 34.1305 204.762 35.7745 204.762 37.613V44.9315C204.762 46.7699 204.32 48.4139 203.436 49.8635C202.587 51.313 201.403 52.4621 199.883 53.3106C198.362 54.1237 196.63 54.5303 194.685 54.5303ZM195.64 49.015C197.797 49.015 199.529 48.2902 200.837 46.8406C202.181 45.3911 202.852 43.5349 202.852 41.2722C202.852 39.752 202.552 38.4085 201.951 37.2418C201.35 36.075 200.501 35.1735 199.405 34.5371C198.345 33.8654 197.09 33.5295 195.64 33.5295C194.226 33.5295 192.971 33.8654 191.875 34.5371C190.814 35.1735 189.966 36.075 189.329 37.2418C188.728 38.4085 188.428 39.752 188.428 41.2722C188.428 42.7925 188.728 44.136 189.329 45.3027C189.966 46.4694 190.814 47.3886 191.875 48.0604C192.971 48.6968 194.226 49.015 195.64 49.015ZM202.481 54V47.1588L203.489 40.954L202.481 34.8023V28.5444H208.315V54H202.481ZM232.237 54V39.31C232.237 37.613 231.689 36.2165 230.593 35.1205C229.532 34.0245 228.153 33.4765 226.456 33.4765C225.325 33.4765 224.317 33.7239 223.433 34.2189C222.549 34.7139 221.86 35.4033 221.365 36.2872C220.87 37.171 220.622 38.1787 220.622 39.31L218.342 38.0372C218.342 36.0927 218.766 34.378 219.615 32.8931C220.463 31.3728 221.63 30.1884 223.115 29.3399C224.635 28.4561 226.332 28.0141 228.206 28.0141C230.115 28.0141 231.812 28.5091 233.297 29.499C234.782 30.4536 235.949 31.7087 236.797 33.2643C237.646 34.7846 238.07 36.3756 238.07 38.0372V54H232.237ZM214.789 54V28.5444H220.622V54H214.789ZM252.589 54L240.975 28.5444L247.445 28.5444L256.302 49.2801H252.483L261.393 28.5444H267.598L255.983 54H252.589ZM271.085 54V28.5444H276.919V54H271.085ZM274.002 23.8776C273.012 23.8776 272.181 23.5417 271.509 22.87C270.873 22.1982 270.555 21.3674 270.555 20.3775C270.555 19.3875 270.873 18.5567 271.509 17.8849C272.181 17.2132 273.012 16.8773 274.002 16.8773C275.027 16.8773 275.858 17.2132 276.495 17.8849C277.131 18.5567 277.449 19.3875 277.449 20.3775C277.449 21.3674 277.131 22.1982 276.495 22.87C275.858 23.5417 275.027 23.8776 274.002 23.8776ZM295.288 54.5303C292.742 54.5303 290.444 53.9646 288.394 52.8333C286.378 51.6666 284.77 50.0756 283.568 48.0604C282.401 46.0451 281.818 43.7824 281.818 41.2722C281.818 38.762 282.401 36.517 283.568 34.5371C284.734 32.5219 286.308 30.9309 288.288 29.7642C290.303 28.5975 292.53 28.0141 294.97 28.0141C297.338 28.0141 299.424 28.5621 301.228 29.6581C303.066 30.7541 304.498 32.2567 305.523 34.1659C306.584 36.075 307.114 38.2494 307.114 40.6889C307.114 41.1131 307.079 41.5551 307.008 42.0147C306.973 42.4389 306.902 42.9162 306.796 43.4466H285.901V38.6736H303.773L301.599 40.5828C301.528 39.0272 301.228 37.7191 300.697 36.6584C300.167 35.5978 299.407 34.7846 298.417 34.2189C297.462 33.6532 296.278 33.3704 294.864 33.3704C293.379 33.3704 292.088 33.6886 290.992 34.325C289.896 34.9614 289.048 35.8629 288.447 37.0296C287.846 38.161 287.545 39.5222 287.545 41.1131C287.545 42.7041 287.863 44.1006 288.5 45.3027C289.136 46.5048 290.038 47.4417 291.204 48.1134C292.371 48.7498 293.715 49.068 295.235 49.068C296.543 49.068 297.745 48.8382 298.841 48.3786C299.972 47.919 300.927 47.2472 301.705 46.3633L305.417 50.1286C304.18 51.5782 302.677 52.6742 300.909 53.4166C299.142 54.1591 297.268 54.5303 295.288 54.5303ZM318.904 54L308.669 28.5444L314.715 28.5444L321.609 47.0528L319.806 47.1058L326.541 28.5444H329.935L336.67 47.1058L334.867 47.0528L341.761 28.5444H347.807L337.572 54H334.178L327.283 36.3932H329.193L322.298 54H318.904Z" fill="black"/>
<path fill-rule="evenodd" clip-rule="evenodd" d="M15.1851 19.5361L27 40.0001L38.6005 19.9074C47.169 24.3021 53.0324 33.2245 53.0324 43.5163C53.0324 58.1608 41.1607 70.0325 26.5162 70.0325C11.8717 70.0325 0 58.1608 0 43.5163C0 32.9256 6.20885 23.7851 15.1851 19.5361Z" fill="#E1D0FC"/>
<path d="M29.5981 27.5C28.4434 29.5 25.5566 29.5 24.4019 27.5L15.7417 12.5C14.587 10.5 16.0303 8 18.3397 8L35.6603 8C37.9697 8 39.413 10.5 38.2583 12.5L29.5981 27.5Z" fill="#7222F0"/>
<path d="M24 54C24 52.3431 25.3431 48 27 48C28.6569 48 30 52.3431 30 54C30 55.6569 28.6569 57 27 57C25.3431 57 24 55.6569 24 54Z" fill="#F72DB1"/>
</svg>
