<svg width="145" height="145" viewBox="0 0 145 145" fill="none" xmlns="http://www.w3.org/2000/svg">
<path d="M90.0454 72.4927C90.0418 77.843 89.0637 82.9651 87.2806 87.6934C82.5531 89.4779 77.4288 90.4582 72.0764 90.4618H72.0144C66.6648 90.4582 61.542 89.4808 56.8145 87.697C55.0311 82.9702 54.049 77.8459 54.0454 72.4942V72.4319C54.049 67.0816 55.0289 61.9595 56.8095 57.2316C61.5392 55.4482 66.6627 54.4668 72.0144 54.4632H72.0764C77.4288 54.4668 82.5531 55.4482 87.2802 57.2316C89.0622 61.9598 90.0414 67.0819 90.045 72.4322V72.4945V72.4938L90.0454 72.4927ZM143.044 60.4615H101.016L130.734 30.7435C128.4 27.4668 125.798 24.3903 122.953 21.5462L122.952 21.5434C120.11 18.702 117.037 16.1022 113.763 13.771L84.0456 43.489V1.46295C80.0926 0.798718 76.0913 0.463728 72.0828 0.461426H72.0065C67.9986 0.463567 63.9977 0.798316 60.0452 1.46223V43.4911L30.3272 13.7731C27.0522 16.1052 23.9774 18.7062 21.1346 21.5491L21.1238 21.5588C18.2849 24.3995 15.6874 27.4715 13.3582 30.7432L43.0762 60.4612H1.04621C1.04621 60.4612 0.0468502 68.356 0.0454102 72.4348V72.487C0.0469099 76.4997 0.38166 80.5054 1.04621 84.4627H43.0748L13.3568 114.18C18.0302 120.742 23.7658 126.477 30.3272 131.151L60.0452 101.433V143.46C63.994 144.123 67.9909 144.458 71.995 144.461H72.098C76.1016 144.458 80.098 144.123 84.0464 143.46V101.431L113.764 131.149C117.038 128.818 120.112 126.218 122.954 123.376L122.961 123.371C125.803 120.528 128.402 117.455 130.734 114.181L101.016 84.4627H143.044C143.707 80.5144 144.042 76.5179 144.045 72.5143V72.411C144.042 68.4074 143.707 64.4109 143.044 60.4626V60.4615Z" fill="#FF4A00"/>
</svg>
